<svg width="25" height="20" viewBox="0 0 25 20" fill="none" xmlns="http://www.w3.org/2000/svg">
<path d="M11.78 14.8L14.9 11.68L18.02 14.8L19.7 13.12L16.58 9.99999L19.7 6.87999L18.02 5.19999L14.9 8.31999L11.78 5.19999L10.1 6.87999L13.22 9.99999L10.1 13.12L11.78 14.8ZM8.9 19.6C8.52 19.6 8.16 19.5148 7.82 19.3444C7.48 19.174 7.2 18.9392 6.98 18.64L0.5 9.99999L6.98 1.35999C7.2 1.05999 7.48 0.825194 7.82 0.655594C8.16 0.485994 8.52 0.400794 8.9 0.399994H22.1C22.76 0.399994 23.3252 0.634794 23.7956 1.10439C24.266 1.57399 24.5008 2.13919 24.5 2.79999V17.2C24.5 17.86 24.2652 18.4252 23.7956 18.8956C23.326 19.366 22.7608 19.6008 22.1 19.6H8.9ZM3.5 9.99999L8.9 17.2H22.1V2.79999H8.9L3.5 9.99999Z" fill="white"/>
</svg>
