<svg width="25" height="24" viewBox="0 0 25 24" fill="none" xmlns="http://www.w3.org/2000/svg">
<path d="M24.0991 13.967C23.9248 13.7923 23.7062 13.6684 23.4668 13.6086C23.2274 13.5487 22.9762 13.5552 22.7402 13.6273C21.0916 14.125 19.3389 14.1662 17.6687 13.7465C15.9985 13.3268 14.4735 12.4619 13.256 11.2439C12.0385 10.026 11.1742 8.50059 10.7551 6.83025C10.336 5.15991 10.3779 3.40718 10.8762 1.75875C10.9489 1.52265 10.9559 1.2712 10.8964 1.03144C10.8368 0.791682 10.7131 0.572684 10.5384 0.398002C10.3637 0.223319 10.1447 0.0995611 9.90495 0.0400365C9.66519 -0.0194881 9.41374 -0.0125267 9.17764 0.060172C6.69816 0.822262 4.52227 2.34709 2.9597 4.41759C1.59326 6.23382 0.759967 8.3949 0.553336 10.6583C0.346706 12.9218 0.77491 15.198 1.7899 17.2317C2.80489 19.2653 4.36651 20.9758 6.29953 22.1714C8.23255 23.3669 10.4605 24.0001 12.7333 24C15.3869 24.0077 17.9698 23.1448 20.0859 21.5438C22.1553 19.9797 23.6786 17.8026 24.4388 15.3225C24.5102 15.087 24.5164 14.8365 24.4565 14.5977C24.3967 14.359 24.2732 14.141 24.0991 13.967ZM18.4507 19.373C16.6191 20.7519 14.3511 21.4228 12.0641 21.2624C9.77707 21.1019 7.62496 20.1208 6.00382 18.4997C4.38269 16.8785 3.40161 14.7264 3.24114 12.4394C3.08067 10.1524 3.75161 7.88439 5.13049 6.05276C5.85599 5.09297 6.75519 4.27788 7.7814 3.64984C7.76102 3.93973 7.75083 4.23075 7.75083 4.52291C7.75443 7.76534 9.04407 10.8739 11.3368 13.1667C13.6296 15.4594 16.7382 16.7491 19.9806 16.7527C20.2728 16.7527 20.5638 16.7425 20.8537 16.7221C20.2258 17.7485 19.4107 18.6477 18.4507 19.373Z" fill="white"/>
</svg>
