<svg width="25" height="24" viewBox="0 0 25 24" fill="none" xmlns="http://www.w3.org/2000/svg">
<path d="M12.5 0C10.1266 0 7.80655 0.703788 5.83316 2.02236C3.85977 3.34094 2.3217 5.21508 1.41345 7.4078C0.505199 9.60051 0.267559 12.0133 0.730582 14.3411C1.1936 16.6689 2.33649 18.807 4.01472 20.4853C5.69295 22.1635 7.83115 23.3064 10.1589 23.7694C12.4867 24.2324 14.8995 23.9948 17.0922 23.0866C19.2849 22.1783 21.1591 20.6402 22.4776 18.6668C23.7962 16.6934 24.5 14.3734 24.5 12C24.4965 8.81848 23.2311 5.76829 20.9814 3.51862C18.7317 1.26894 15.6815 0.00352914 12.5 0ZM12.5 21.3333C10.654 21.3333 8.84954 20.7859 7.31468 19.7604C5.77982 18.7348 4.58355 17.2772 3.87713 15.5717C3.17071 13.8663 2.98588 11.9896 3.34601 10.1792C3.70614 8.36867 4.59505 6.70563 5.90034 5.40034C7.20563 4.09505 8.86867 3.20613 10.6792 2.846C12.4896 2.48587 14.3663 2.67071 16.0717 3.37712C17.7772 4.08354 19.2348 5.27982 20.2604 6.81468C21.2859 8.34953 21.8333 10.154 21.8333 12C21.8307 14.4745 20.8465 16.847 19.0967 18.5967C17.347 20.3465 14.9745 21.3307 12.5 21.3333ZM20.0556 12C20.0556 12.3536 19.9151 12.6928 19.665 12.9428C19.415 13.1929 19.0758 13.3333 18.7222 13.3333H12.5C12.1464 13.3333 11.8072 13.1929 11.5572 12.9428C11.3071 12.6928 11.1667 12.3536 11.1667 12V5.77778C11.1667 5.42415 11.3071 5.08502 11.5572 4.83497C11.8072 4.58492 12.1464 4.44444 12.5 4.44444C12.8536 4.44444 13.1928 4.58492 13.4428 4.83497C13.6929 5.08502 13.8333 5.42415 13.8333 5.77778V10.6667H18.7222C19.0758 10.6667 19.415 10.8071 19.665 11.0572C19.9151 11.3072 20.0556 11.6464 20.0556 12Z" fill="black"/>
</svg>
