<svg width="31" height="30" viewBox="0 0 31 30" fill="none" xmlns="http://www.w3.org/2000/svg">
<path d="M14 3.5V1.5C14 1.10218 14.158 0.720644 14.4393 0.43934C14.7206 0.158035 15.1022 0 15.5 0C15.8978 0 16.2794 0.158035 16.5607 0.43934C16.842 0.720644 17 1.10218 17 1.5V3.5C17 3.89782 16.842 4.27936 16.5607 4.56066C16.2794 4.84196 15.8978 5 15.5 5C15.1022 5 14.7206 4.84196 14.4393 4.56066C14.158 4.27936 14 3.89782 14 3.5ZM24 15C24 16.6811 23.5015 18.3245 22.5675 19.7223C21.6335 21.1202 20.306 22.2096 18.7528 22.853C17.1996 23.4963 15.4906 23.6646 13.8417 23.3367C12.1929 23.0087 10.6783 22.1992 9.48959 21.0104C8.30085 19.8217 7.4913 18.3071 7.16333 16.6583C6.83535 15.0094 7.00368 13.3004 7.64702 11.7472C8.29037 10.194 9.37984 8.8665 10.7777 7.93251C12.1755 6.99852 13.8189 6.5 15.5 6.5C17.7536 6.50232 19.9143 7.39859 21.5078 8.99215C23.1014 10.5857 23.9977 12.7464 24 15ZM21 15C21 13.9122 20.6774 12.8488 20.0731 11.9444C19.4687 11.0399 18.6098 10.3349 17.6048 9.91866C16.5998 9.50238 15.4939 9.39346 14.427 9.60568C13.3601 9.8179 12.3801 10.3417 11.6109 11.1109C10.8417 11.8801 10.3179 12.8601 10.1057 13.927C9.89346 14.9939 10.0024 16.0998 10.4187 17.1048C10.8349 18.1098 11.5399 18.9687 12.4444 19.5731C13.3488 20.1774 14.4122 20.5 15.5 20.5C16.9582 20.4983 18.3562 19.9184 19.3873 18.8873C20.4184 17.8562 20.9983 16.4582 21 15ZM5.93875 7.56125C6.07828 7.70078 6.24393 7.81146 6.42623 7.88697C6.60853 7.96249 6.80393 8.00135 7.00125 8.00135C7.19857 8.00135 7.39397 7.96249 7.57627 7.88697C7.75857 7.81146 7.92422 7.70078 8.06375 7.56125C8.20328 7.42172 8.31396 7.25607 8.38947 7.07377C8.46499 6.89147 8.50385 6.69607 8.50385 6.49875C8.50385 6.30143 8.46499 6.10603 8.38947 5.92373C8.31396 5.74143 8.20328 5.57578 8.06375 5.43625L6.56375 3.93625C6.28196 3.65446 5.89976 3.49615 5.50125 3.49615C5.10274 3.49615 4.72054 3.65446 4.43875 3.93625C4.15696 4.21804 3.99865 4.60024 3.99865 4.99875C3.99865 5.39726 4.15696 5.77946 4.43875 6.06125L5.93875 7.56125ZM5.93875 22.4363L4.43875 23.9363C4.29922 24.0758 4.18854 24.2414 4.11303 24.4237C4.03751 24.606 3.99865 24.8014 3.99865 24.9988C3.99865 25.1961 4.03751 25.3915 4.11303 25.5738C4.18854 25.7561 4.29922 25.9217 4.43875 26.0613C4.72054 26.343 5.10274 26.5014 5.50125 26.5014C5.69857 26.5014 5.89397 26.4625 6.07627 26.387C6.25857 26.3115 6.42422 26.2008 6.56375 26.0613L8.06375 24.5613C8.34554 24.2795 8.50385 23.8973 8.50385 23.4988C8.50385 23.1002 8.34554 22.718 8.06375 22.4363C7.78196 22.1545 7.39976 21.9961 7.00125 21.9961C6.60274 21.9961 6.22054 22.1545 5.93875 22.4363ZM24 8C24.197 8.00015 24.3922 7.96149 24.5743 7.8862C24.7564 7.81092 24.9218 7.7005 25.0613 7.56125L26.5613 6.06125C26.7008 5.92172 26.8115 5.75607 26.887 5.57377C26.9625 5.39147 27.0014 5.19607 27.0014 4.99875C27.0014 4.80143 26.9625 4.60603 26.887 4.42373C26.8115 4.24143 26.7008 4.07578 26.5613 3.93625C26.4217 3.79672 26.2561 3.68604 26.0738 3.61053C25.8915 3.53501 25.6961 3.49615 25.4988 3.49615C25.3014 3.49615 25.106 3.53501 24.9237 3.61053C24.7414 3.68604 24.5758 3.79672 24.4363 3.93625L22.9363 5.43625C22.7252 5.64605 22.5814 5.91388 22.523 6.20567C22.4646 6.49745 22.4943 6.80002 22.6083 7.07487C22.7224 7.34973 22.9156 7.58445 23.1634 7.74919C23.4112 7.91392 23.7024 8.00123 24 8ZM25.0613 22.4387C24.7795 22.157 24.3973 21.9986 23.9988 21.9986C23.6002 21.9986 23.218 22.157 22.9363 22.4387C22.6545 22.7205 22.4961 23.1027 22.4961 23.5012C22.4961 23.8998 22.6545 24.282 22.9363 24.5637L24.4363 26.0637C24.718 26.3455 25.1002 26.5039 25.4988 26.5039C25.8973 26.5039 26.2795 26.3455 26.5613 26.0637C26.843 25.782 27.0014 25.3998 27.0014 25.0012C27.0014 24.6027 26.843 24.2205 26.5613 23.9387L25.0613 22.4387ZM5.5 15C5.5 14.6022 5.34196 14.2206 5.06066 13.9393C4.77936 13.658 4.39782 13.5 4 13.5H2C1.60218 13.5 1.22064 13.658 0.93934 13.9393C0.658035 14.2206 0.5 14.6022 0.5 15C0.5 15.3978 0.658035 15.7794 0.93934 16.0607C1.22064 16.342 1.60218 16.5 2 16.5H4C4.39782 16.5 4.77936 16.342 5.06066 16.0607C5.34196 15.7794 5.5 15.3978 5.5 15ZM15.5 25C15.1022 25 14.7206 25.158 14.4393 25.4393C14.158 25.7206 14 26.1022 14 26.5V28.5C14 28.8978 14.158 29.2794 14.4393 29.5607C14.7206 29.842 15.1022 30 15.5 30C15.8978 30 16.2794 29.842 16.5607 29.5607C16.842 29.2794 17 28.8978 17 28.5V26.5C17 26.1022 16.842 25.7206 16.5607 25.4393C16.2794 25.158 15.8978 25 15.5 25ZM29 13.5H27C26.6022 13.5 26.2206 13.658 25.9393 13.9393C25.658 14.2206 25.5 14.6022 25.5 15C25.5 15.3978 25.658 15.7794 25.9393 16.0607C26.2206 16.342 26.6022 16.5 27 16.5H29C29.3978 16.5 29.7794 16.342 30.0607 16.0607C30.342 15.7794 30.5 15.3978 30.5 15C30.5 14.6022 30.342 14.2206 30.0607 13.9393C29.7794 13.658 29.3978 13.5 29 13.5Z" fill="black"/>
</svg>
